<?xml version="1.0" encoding="utf-8"?>
<!-- Generator: Adobe Illustrator 26.1.0, SVG Export Plug-In . SVG Version: 6.00 Build 0)  -->
<svg version="1.1" id="Layer_1" xmlns="http://www.w3.org/2000/svg" xmlns:xlink="http://www.w3.org/1999/xlink" x="0px" y="0px"
	 viewBox="0 0 384 384" style="enable-background:new 0 0 384 384;" xml:space="preserve">
<style type="text/css">
	.st0{fill:#77BCB5;}
</style>
<rect x="69.1" y="114.5" class="st0" width="253.9" height="175"/>
<g>
	<g>
		<path d="M384.8,68.2c0,83,0,166,0,249c-0.2,0.7-0.6,1.4-0.7,2.1c-4.1,30.4-25.4,54.9-54.9,62.8c-3.9,1.1-8,1.7-12,2.6
			c-83,0-166,0-249,0c-0.7-0.2-1.4-0.6-2.1-0.7c-31.1-4.1-56-26.5-63.3-57c-0.8-3.2-1.4-6.5-2.1-9.8c0-83,0-166,0-249
			c0.2-0.7,0.5-1.4,0.7-2.1C5.8,37.7,21.2,17.7,47.5,6.4C54,3.6,61.3,2.6,68.2,0.8c83,0,166,0,249,0c0.7,0.2,1.4,0.6,2.1,0.7
			c30.3,4,54.8,25.4,62.8,54.9C383.2,60.2,383.9,64.3,384.8,68.2z M169.7,209.3c-0.8,6.2-3.7,10.4-7.7,14
			c-9.5,8.3-23.9,10.1-35.5,4.4c-17.7-8.6-25.7-30.9-18.1-50.1c8.3-20.9,32.2-30.6,50.9-17.2c1.3,0.9,2.8,1.7,4.3,2.3
			c5.9,2.3,12.6,0.4,15.8-4.3c3.2-4.7,2.6-11-1.8-15.9c-1.5-1.7-3.2-3.2-5-4.5c-7.9-5.8-17-8.3-26.6-9
			c-40.4-2.8-72.6,31.1-68.1,71.4c4.6,41.4,49.4,67.4,87.5,50.9c20.2-8.7,33.7-31.8,30.4-52c-1.1-6.8-5.5-11.4-12.2-11.7
			c-10.7-0.3-21.5-0.3-32.2,0c-6.5,0.2-11,5.8-10.4,11.8c0.5,5.4,5.1,9.6,11,9.8C157.8,209.5,163.5,209.3,169.7,209.3z M241.5,211.7
			c3.3,0,6,0.1,8.7,0c8.7-0.5,17.6-0.1,26.1-1.9c22-4.7,34.6-23.8,31.2-45.7c-2.4-16-15.7-30.2-33.5-32.4
			c-15.6-1.9-31.6-1.3-47.5-1.1c-6.8,0.1-11.4,6.4-11.8,13.8c-0.2,2.9-0.1,5.7-0.1,8.6c0,29.5,0,59,0,88.5c0,5.7,2,10.3,6.9,13.3
			c8.9,5.3,19.7-1,19.9-11.7C241.6,232.8,241.5,222.5,241.5,211.7z"/>
		<path d="M241.6,188.3c0-11.5,0-23.2,0-35.7c9.3,0.4,18.5,0.2,27.6,1.5c9,1.3,13.2,8.4,12.8,18.6c-0.3,8.7-5.2,14.7-14.2,15.4
			C259.3,188.9,250.6,188.3,241.6,188.3z"/>
	</g>
</g>
</svg>
